<svg xmlns="http://www.w3.org/2000/svg" xmlns:xlink="http://www.w3.org/1999/xlink" width="385" zoomAndPan="magnify" viewBox="0 0 288.75 288.749989" height="385" preserveAspectRatio="xMidYMid meet" version="1.0"><defs><g/><clipPath id="6146be57e8"><path d="M 0 0 L 288.5 0 L 288.5 288.5 L 0 288.5 Z M 0 0 " clip-rule="nonzero"/></clipPath><clipPath id="7044e097ff"><path d="M 0 0 L 288.082031 0 L 288.082031 288.226562 L 0 288.226562 Z M 0 0 " clip-rule="nonzero"/></clipPath></defs><g clipPath="url(#6146be57e8)"><path fill="#ffffff" d="M 0 0 L 288.5 0 L 288.5 288.5 L 0 288.5 Z M 0 0 " fill-opacity="1" fill-rule="nonzero"/></g><g clipPath="url(#7044e097ff)"><path fill="#ffffff" d="M 0 0 L 288.082031 0 L 288.082031 288.082031 L 0 288.082031 Z M 0 0 " fill-opacity="1" fill-rule="nonzero"/></g><g fill="#000000" fill-opacity="1"><g transform="translate(20.350581, 154.651961)"><g><path d="M 15.328125 4.234375 L 33.5625 4.234375 L 33.5625 8.46875 L 15.328125 8.46875 Z M 2.921875 -7.4375 L 2.921875 -18.09375 C 2.921875 -19.53125 3.242188 -20.804688 3.890625 -21.921875 C 4.535156 -23.046875 5.414062 -23.929688 6.53125 -24.578125 C 7.644531 -25.222656 8.921875 -25.546875 10.359375 -25.546875 L 38.53125 -25.546875 C 39.96875 -25.546875 41.242188 -25.222656 42.359375 -24.578125 C 43.472656 -23.929688 44.351562 -23.046875 45 -21.921875 C 45.644531 -20.804688 45.96875 -19.53125 45.96875 -18.09375 L 45.96875 -7.4375 C 45.96875 -6.007812 45.644531 -4.734375 45 -3.609375 C 44.351562 -2.492188 43.472656 -1.613281 42.359375 -0.96875 C 41.242188 -0.320312 39.96875 0 38.53125 0 L 10.359375 0 C 8.921875 0 7.644531 -0.320312 6.53125 -0.96875 C 5.414062 -1.613281 4.535156 -2.492188 3.890625 -3.609375 C 3.242188 -4.734375 2.921875 -6.007812 2.921875 -7.4375 Z M 7.15625 -7.4375 C 7.15625 -6.539062 7.460938 -5.78125 8.078125 -5.15625 C 8.703125 -4.539062 9.460938 -4.234375 10.359375 -4.234375 L 38.53125 -4.234375 C 39.445312 -4.234375 40.207031 -4.539062 40.8125 -5.15625 C 41.425781 -5.78125 41.734375 -6.539062 41.734375 -7.4375 L 41.734375 -18.09375 C 41.734375 -19.019531 41.425781 -19.785156 40.8125 -20.390625 C 40.207031 -21.003906 39.445312 -21.3125 38.53125 -21.3125 L 10.359375 -21.3125 C 9.460938 -21.3125 8.703125 -21.003906 8.078125 -20.390625 C 7.460938 -19.785156 7.15625 -19.019531 7.15625 -18.09375 Z M 7.15625 -7.4375 "/></g></g></g><g fill="#000000" fill-opacity="1"><g transform="translate(69.239146, 154.651961)"><g><path d="M 23.78125 0 L 23.78125 -21.3125 L 2.921875 -21.3125 L 2.921875 -25.546875 L 48.890625 -25.546875 L 48.890625 -21.3125 L 28.015625 -21.3125 L 28.015625 0 Z M 23.78125 0 "/></g></g></g><g fill="#000000" fill-opacity="1"><g transform="translate(121.046426, 154.651961)"><g><path d="M 2.921875 -18.09375 C 2.921875 -19.53125 3.242188 -20.804688 3.890625 -21.921875 C 4.535156 -23.046875 5.414062 -23.929688 6.53125 -24.578125 C 7.644531 -25.222656 8.921875 -25.546875 10.359375 -25.546875 L 45.96875 -25.546875 L 45.96875 -21.3125 L 10.359375 -21.3125 C 9.460938 -21.3125 8.703125 -21.003906 8.078125 -20.390625 C 7.460938 -19.785156 7.15625 -19.019531 7.15625 -18.09375 L 7.15625 -14.890625 L 45.96875 -14.890625 L 45.96875 -10.65625 L 7.15625 -10.65625 L 7.15625 -7.4375 C 7.15625 -6.539062 7.460938 -5.78125 8.078125 -5.15625 C 8.703125 -4.539062 9.460938 -4.234375 10.359375 -4.234375 L 45.96875 -4.234375 L 45.96875 0 L 10.359375 0 C 8.921875 0 7.644531 -0.320312 6.53125 -0.96875 C 5.414062 -1.613281 4.535156 -2.492188 3.890625 -3.609375 C 3.242188 -4.734375 2.921875 -6.007812 2.921875 -7.4375 Z M 2.921875 -18.09375 "/></g></g></g><g fill="#000000" fill-opacity="1"><g transform="translate(169.934991, 154.651961)"><g><path d="M 7.15625 -7.4375 C 7.15625 -6.539062 7.460938 -5.78125 8.078125 -5.15625 C 8.703125 -4.539062 9.460938 -4.234375 10.359375 -4.234375 L 45.96875 -4.234375 L 45.96875 0 L 10.359375 0 C 8.921875 0 7.644531 -0.320312 6.53125 -0.96875 C 5.414062 -1.613281 4.535156 -2.492188 3.890625 -3.609375 C 3.242188 -4.734375 2.921875 -6.007812 2.921875 -7.4375 L 2.921875 -18.09375 C 2.921875 -19.53125 3.242188 -20.804688 3.890625 -21.921875 C 4.535156 -23.046875 5.414062 -23.929688 6.53125 -24.578125 C 7.644531 -25.222656 8.921875 -25.546875 10.359375 -25.546875 L 45.96875 -25.546875 L 45.96875 -21.3125 L 10.359375 -21.3125 C 9.460938 -21.3125 8.703125 -21.003906 8.078125 -20.390625 C 7.460938 -19.785156 7.15625 -19.019531 7.15625 -18.09375 Z M 7.15625 -7.4375 "/></g></g></g><g fill="#000000" fill-opacity="1"><g transform="translate(218.823556, 154.651961)"><g><path d="M 2.921875 0 L 2.921875 -25.546875 L 7.15625 -25.546875 L 7.15625 -14.890625 L 41.734375 -14.890625 L 41.734375 -25.546875 L 45.96875 -25.546875 L 45.96875 0 L 41.734375 0 L 41.734375 -10.65625 L 7.15625 -10.65625 L 7.15625 0 Z M 2.921875 0 "/></g></g></g></svg>